# xmcd CD database file
#
# Track frame offsets:
#	150
#	18645
#	40153
#	55935
#
# Disc length: 960 seconds
#
# Revision: 0
# Processed by: cddbd v1.5.1PL2 Copyright (c) Steve Scherf et al.
# Submitted via: CDex 1.51
#
DISCID=2d03be04
DTITLE=メレンゲ - カメレオン
DYEAR=2006
DGENRE=J-Pop
TTITLE0=カメレオン
TTITLE1=ふきのとう
TTITLE2=へび坂
TTITLE3=ホシノクズ remix
EXTD=YEAR: 2006
EXTT0=
EXTT1=
EXTT2=
EXTT3=
PLAYORDER=
